<?xml version="1.0" encoding="UTF-8"?>
<svg xmlns="http://www.w3.org/2000/svg" viewBox="0 0 320 240" role="img">
  <title>Joseph</title>
  <rect width="320" height="240" fill="#fff0cc"/>
  <line x1="278.0" y1="48.0" x2="290.0" y2="48.0" stroke="#f6c445" stroke-width="5" stroke-linecap="round"/><line x1="274.2" y1="62.0" x2="284.6" y2="68.0" stroke="#f6c445" stroke-width="5" stroke-linecap="round"/><line x1="264.0" y1="72.2" x2="270.0" y2="82.6" stroke="#f6c445" stroke-width="5" stroke-linecap="round"/><line x1="250.0" y1="76.0" x2="250.0" y2="88.0" stroke="#f6c445" stroke-width="5" stroke-linecap="round"/><line x1="236.0" y1="72.2" x2="230.0" y2="82.6" stroke="#f6c445" stroke-width="5" stroke-linecap="round"/><line x1="225.8" y1="62.0" x2="215.4" y2="68.0" stroke="#f6c445" stroke-width="5" stroke-linecap="round"/><line x1="222.0" y1="48.0" x2="210.0" y2="48.0" stroke="#f6c445" stroke-width="5" stroke-linecap="round"/><line x1="225.8" y1="34.0" x2="215.4" y2="28.0" stroke="#f6c445" stroke-width="5" stroke-linecap="round"/><line x1="236.0" y1="23.8" x2="230.0" y2="13.4" stroke="#f6c445" stroke-width="5" stroke-linecap="round"/><line x1="250.0" y1="20.0" x2="250.0" y2="8.0" stroke="#f6c445" stroke-width="5" stroke-linecap="round"/><line x1="264.0" y1="23.8" x2="270.0" y2="13.4" stroke="#f6c445" stroke-width="5" stroke-linecap="round"/><line x1="274.2" y1="34.0" x2="284.6" y2="28.0" stroke="#f6c445" stroke-width="5" stroke-linecap="round"/><circle cx="250" cy="48" r="24" fill="#ffd56a" stroke="#243044" stroke-width="4"/>
     <rect x="0" y="180" width="320" height="60" fill="#e6c36a"/>
     <path d="M118 188 L160 96 L202 188 Z" fill="#e85d75" stroke="#243044" stroke-width="4"/>
     <path d="M132 188 L160 120 L160 188 Z" fill="#f6a04d"/>
     <path d="M160 120 L188 188 L160 188 Z" fill="#7a6ad6"/>
     <path d="M146 188 L160 140 L174 188 Z" fill="#ffe066"/>
     <circle cx="160" cy="84" r="16" fill="#e0aa78" stroke="#243044" stroke-width="4"/>
     <circle cx="155.2" cy="83.04" r="2.1" fill="#243044"/>
    <circle cx="164.8" cy="83.04" r="2.1" fill="#243044"/>
    <path d="M155.84 88.48 Q160 92.32 164.16 88.48" fill="none" stroke="#243044" stroke-width="2.6" stroke-linecap="round"/>
     <rect x="40" y="150" width="16" height="40" fill="#e6c15a" stroke="#243044" stroke-width="3"/>
     <rect x="62" y="140" width="16" height="50" fill="#f2d16b" stroke="#243044" stroke-width="3"/>
     <rect x="230" y="146" width="16" height="44" fill="#e6c15a" stroke="#243044" stroke-width="3"/>
     <rect x="252" y="136" width="16" height="54" fill="#f2d16b" stroke="#243044" stroke-width="3"/>
</svg>
