<?xml version="1.0" encoding="UTF-8"?>
<svg xmlns="http://www.w3.org/2000/svg" viewBox="0 0 320 240" role="img">
  <title>The Lord who serves</title>
  <rect width="320" height="240" fill="#efe4d4"/>
  <circle cx="120" cy="82.9" r="27.900000000000002" fill="#ffe7a3" stroke="#e2ae2f" stroke-width="4"/><path d="M120 85.735 C 78 136.10000000000002, 86.4 198, 92 200 L 148 200 C 153.6 198, 162 136.10000000000002, 120 85.735 Z" fill="#f7f3ea" stroke="#243044" stroke-width="4"/><path d="M115.8 101.80000000000001 L127 196" stroke="#d4a24c" stroke-width="6" stroke-linecap="round"/><path d="M127 131.9 L159.2 174.8" stroke="#f7f3ea" stroke-width="10" stroke-linecap="round"/>
      <circle cx="162" cy="177.6" r="6" fill="#f0c9a0" stroke="#243044" stroke-width="3"/><circle cx="120" cy="82.9" r="18.900000000000002" fill="#f0c9a0" stroke="#243044" stroke-width="4"/><path d="M102.1 84.9 Q120 54 137.9 84.9 Q120 80.06500000000001 102.1 84.9 Z" fill="#3a2a22"/><path d="M109.605 87.625 Q120 106.525 130.395 87.625 Q120 91.405 109.605 87.625 Z" fill="#3a2a22"/><circle cx="114.33" cy="80.766" r="2.1" fill="#243044"/>
    <circle cx="125.67" cy="80.766" r="2.1" fill="#243044"/>
    <path d="M115.086 87.19200000000001 Q120 91.72800000000001 124.914 87.19200000000001" fill="none" stroke="#243044" stroke-width="2.6" stroke-linecap="round"/>
     <ellipse cx="220" cy="176" rx="36" ry="16" fill="#8fd3f4" stroke="#243044" stroke-width="4"/>
     <path d="M200 168 Q220 150 244 166" fill="none" stroke="#d7e7f5" stroke-width="6"/>
     <ellipse cx="248" cy="160" rx="16" ry="8" fill="#f0c9a0" stroke="#243044" stroke-width="3"/>
     <path d="M250 120 Q270 150 236 168" fill="none" stroke="#f7f3ea" stroke-width="8" stroke-linecap="round"/>
</svg>
