<?xml version="1.0" encoding="UTF-8"?>
<svg xmlns="http://www.w3.org/2000/svg" viewBox="0 0 320 240" role="img">
  <title>Noah</title>
  <rect width="320" height="240" fill="#9fd8f5"/>
  <path d="M10 150 A150 90 0 0 1 310 150" fill="none" stroke="#e85d75" stroke-width="8"/><path d="M22 150 A138 82 0 0 1 298 150" fill="none" stroke="#f6a04d" stroke-width="8"/><path d="M34 150 A126 74 0 0 1 286 150" fill="none" stroke="#ffe066" stroke-width="8"/><path d="M46 150 A114 66 0 0 1 274 150" fill="none" stroke="#7bc67e" stroke-width="8"/><path d="M58 150 A102 58 0 0 1 262 150" fill="none" stroke="#5eb1e8" stroke-width="8"/>
    <rect x="0" y="168" width="320" height="72" fill="#7ec8ea"/>
    <path d="M40 150 L280 150 L250 196 Q160 214 70 196 Z" fill="#a56b3c" stroke="#243044" stroke-width="4"/>
    <rect x="108" y="108" width="104" height="46" rx="4" fill="#c9844a" stroke="#243044" stroke-width="4"/>
    <rect x="124" y="118" width="22" height="18" rx="2" fill="#8fd3f4" stroke="#243044" stroke-width="3"/>
    <rect x="174" y="118" width="22" height="18" rx="2" fill="#8fd3f4" stroke="#243044" stroke-width="3"/>
    <circle cx="135" cy="128" r="12.100000000000001" fill="#e2a043" stroke="#243044" stroke-width="4"/>
    <circle cx="135" cy="129.1" r="7.15" fill="#f0c27a" stroke="#243044" stroke-width="3"/>
    <circle cx="132.8" cy="128" r="2" fill="#243044"/>
    <circle cx="137.2" cy="128" r="2" fill="#243044"/>
    <path d="M132.8 131.3 Q135 133.5 137.2 131.3" fill="none" stroke="#243044" stroke-width="2" stroke-linecap="round"/>
    <rect x="188" y="78" width="8" height="36" fill="#e6c15a" stroke="#243044" stroke-width="3"/>
    <circle cx="192" cy="70" r="10" fill="#f0d78a" stroke="#243044" stroke-width="3"/>
    <circle cx="188" cy="66" r="3" fill="#c9844a"/>
    <circle cx="196" cy="74" r="3" fill="#c9844a"/>
    <polygon points="255.6,79.4 273.8,71 268.2,85" fill="#fff" stroke="#243044" stroke-width="4" stroke-linejoin="round"/>
    <ellipse cx="250" cy="78" rx="14" ry="7.699999999999999" fill="#fff" stroke="#243044" stroke-width="4"/>
    <circle cx="240.2" cy="76.6" r="5.6" fill="#fff" stroke="#243044" stroke-width="4"/>
    <polygon points="236,78 227.6,75.9 236,81.5" fill="#f2b85a" stroke="#243044" stroke-width="3" stroke-linejoin="round"/>
    <circle cx="239.5" cy="75.2" r="1.4" fill="#243044"/>
    <ellipse cx="262" cy="74" rx="6" ry="3" fill="#7bc67e" stroke="#243044" stroke-width="2"/>
</svg>
