<?xml version="1.0" encoding="UTF-8"?>
<svg xmlns="http://www.w3.org/2000/svg" viewBox="0 0 320 240" role="img">
  <title>Out of Egypt</title>
  <rect width="320" height="240" fill="#d7f0fb"/>
  <rect width="110" height="240" fill="#2f86c5"/>
     <rect x="210" width="110" height="240" fill="#2f86c5"/>
     <path d="M110 0 Q90 40 110 80 T110 160 T110 240" fill="#f3d7a4"/>
     <path d="M210 0 Q230 40 210 80 T210 160 T210 240" fill="#f3d7a4"/>
     <rect x="110" width="100" height="240" fill="#f3d7a4"/>
     <polygon points="35.2,70 20.799999999999997,60.4 20.799999999999997,79.6" fill="#f2b85a" stroke="#243044" stroke-width="4" stroke-linejoin="round"/>
    <ellipse cx="48" cy="70" rx="17.6" ry="10.4" fill="#f2b85a" stroke="#243044" stroke-width="4"/>
    <circle cx="56" cy="68.4" r="2" fill="#243044"/>
     <polygon points="65.2,150 77.8,141.6 77.8,158.4" fill="#7ee0c8" stroke="#243044" stroke-width="4" stroke-linejoin="round"/>
    <ellipse cx="54" cy="150" rx="15.399999999999999" ry="9.1" fill="#7ee0c8" stroke="#243044" stroke-width="4"/>
    <circle cx="47" cy="148.6" r="1.75" fill="#243044"/>
     <polygon points="283.6,110 298.9,99.8 298.9,120.2" fill="#f2b85a" stroke="#243044" stroke-width="4" stroke-linejoin="round"/>
    <ellipse cx="270" cy="110" rx="18.7" ry="11.049999999999999" fill="#f2b85a" stroke="#243044" stroke-width="4"/>
    <circle cx="261.5" cy="108.3" r="2.125" fill="#243044"/>
     <path d="M150.9 110.8 L148.8 150 L157.9 150 L158.6 113.32000000000001 Z" fill="#31415f" stroke="#243044" stroke-width="3"/>
    <path d="M169.1 110.8 L171.2 150 L162.1 150 L161.4 113.32000000000001 Z" fill="#31415f" stroke="#243044" stroke-width="3"/>
    <rect x="148.1" y="102.61" width="23.8" height="28" rx="7" fill="#ef6f91" stroke="#243044" stroke-width="4"/>
    <circle cx="160" cy="98.2" r="12.6" fill="#c68642" stroke="#243044" stroke-width="4"/>
    <circle cx="156.22" cy="97.444" r="2.1" fill="#243044"/>
    <circle cx="163.78" cy="97.444" r="2.1" fill="#243044"/>
    <path d="M156.724 101.72800000000001 Q160 104.75200000000001 163.276 101.72800000000001" fill="none" stroke="#243044" stroke-width="2.6" stroke-linecap="round"/>
     <path d="M151.68 174.16 L149.76 210 L158.08 210 L158.72 176.464 Z" fill="#31415f" stroke="#243044" stroke-width="3"/>
    <path d="M168.32 174.16 L170.24 210 L161.92 210 L161.28 176.464 Z" fill="#31415f" stroke="#243044" stroke-width="3"/>
    <rect x="149.12" y="166.672" width="21.76" height="25.6" rx="6.4" fill="#5b8def" stroke="#243044" stroke-width="4"/>
    <circle cx="160" cy="162.64" r="11.52" fill="#8d5523" stroke="#243044" stroke-width="4"/>
    <circle cx="156.544" cy="161.94879999999998" r="2.1" fill="#243044"/>
    <circle cx="163.456" cy="161.94879999999998" r="2.1" fill="#243044"/>
    <path d="M157.0048 165.86559999999997 Q160 168.63039999999998 162.9952 165.86559999999997" fill="none" stroke="#243044" stroke-width="2.6" stroke-linecap="round"/>
</svg>
